<?xml version="1.0" standalone="no"?>
<!DOCTYPE svg PUBLIC "-//W3C//DTD SVG 20010904//EN"
 "http://www.w3.org/TR/2001/REC-SVG-20010904/DTD/svg10.dtd">
<svg version="1.0" xmlns="http://www.w3.org/2000/svg"
 width="1320.000000pt" height="1000.000000pt" viewBox="0 0 1320.000000 1000.000000"
 preserveAspectRatio="xMidYMid meet">
<metadata>
Created by potrace 1.16, written by Peter Selinger 2001-2019
</metadata>
<g transform="translate(0.000000,1000.000000) scale(0.100000,-0.100000)"
fill="#000000" stroke="none">
<path d="M0 5000 l0 -5000 6600 0 6600 0 0 5000 0 5000 -6600 0 -6600 0 0
-5000z m7855 1831 c71 -29 157 -110 195 -186 22 -43 25 -63 25 -150 0 -86 -3
-107 -24 -150 -37 -74 -111 -148 -184 -181 l-62 -29 -1010 -3 c-736 -2 -1025
0 -1065 8 -104 22 -203 101 -248 199 -46 99 -41 241 11 331 30 52 96 119 142
143 89 46 82 46 1150 44 l1010 -2 60 -24z m3116 8 c88 -27 194 -132 230 -228
11 -29 14 -243 17 -1111 2 -652 -1 -1120 -7 -1190 -39 -451 -293 -826 -692
-1023 -208 -103 -370 -140 -609 -140 -211 0 -383 35 -546 109 -385 175 -629
469 -725 872 -24 101 -40 309 -29 380 34 209 229 345 435 302 76 -16 131 -47
190 -111 68 -73 85 -119 101 -278 20 -199 48 -271 144 -374 107 -115 252 -172
435 -171 176 1 310 54 424 167 63 63 100 127 128 222 16 55 18 151 23 1190 l5
1130 33 67 c81 164 262 241 443 187z m-8368 -1337 l427 -427 -430 -430 -430
-430 -95 95 -95 95 335 335 335 335 -335 335 -335 335 92 92 c51 51 95 93 98
93 3 0 197 -192 433 -428z m5273 -174 c68 -36 141 -111 173 -178 22 -47 26
-68 26 -150 0 -81 -4 -103 -26 -150 -32 -69 -101 -140 -170 -177 l-54 -28
-822 -3 -823 -2 0 -563 c0 -317 -4 -588 -10 -621 -26 -160 -138 -275 -298
-306 -146 -29 -302 45 -379 180 -43 76 -44 86 -41 945 l3 820 26 56 c40 84
129 166 214 197 21 7 344 10 1080 9 l1050 -2 51 -27z m-3586 -1158 l0 -150
-590 0 -590 0 0 150 0 150 590 0 590 0 0 -150z"/>
</g>
</svg>
