<?xml version="1.0" encoding="UTF-8"?>
<svg version="1.1" xmlns="http://www.w3.org/2000/svg" width="1320" height="1000">
<path d="M0 0 C435.6 0 871.2 0 1320 0 C1320 330 1320 660 1320 1000 C884.4 1000 448.8 1000 0 1000 C0 670 0 340 0 0 Z " fill="#111111" transform="translate(0,0)"/>
<path d="M0 0 C10.16016418 -0.44174627 17.65815229 2.84036764 25.43359375 9.26953125 C33.05205631 16.45015113 37.10177028 24.72953004 37.56378973 35.27064419 C37.60394987 37.63441224 37.61076316 39.99612334 37.60636902 42.36022949 C37.60863458 43.2621756 37.61090013 44.16412171 37.61323434 45.09339952 C37.61954571 48.10459722 37.6187468 51.11574957 37.61791992 54.12695312 C37.6209133 56.29081276 37.62431624 58.45467187 37.62809753 60.61853027 C37.63692603 66.49083932 37.63927524 72.36313379 37.63991332 78.23544884 C37.64062476 81.90892564 37.64276092 85.58239875 37.64541054 89.25587463 C37.65466191 102.08529902 37.6587459 114.91471302 37.65795898 127.74414062 C37.65735905 139.67903743 37.66789487 151.6138889 37.68370265 163.54877424 C37.69680939 173.81233669 37.70214153 184.07588438 37.70150357 194.33945513 C37.7012494 200.46162541 37.70405562 206.58375545 37.71468163 212.70591736 C37.72441478 218.47121145 37.72440621 224.23642728 37.71716499 230.00172424 C37.71612544 232.10788081 37.71844428 234.21404238 37.72452545 236.32019043 C37.82368423 273.06830235 27.4830694 307.3566907 1.47265625 334.19140625 C-1.72925056 337.37924905 -5.01975841 340.34467032 -8.52734375 343.19140625 C-9.31753906 343.84109375 -10.10773438 344.49078125 -10.921875 345.16015625 C-36.08227226 364.63917348 -68.10057388 373.13095422 -99.52734375 372.19140625 C-100.77515625 372.16175781 -102.02296875 372.13210938 -103.30859375 372.1015625 C-129.68050915 370.94638245 -154.56322291 360.97551793 -175.52734375 345.19140625 C-176.47222656 344.48242188 -177.41710937 343.7734375 -178.390625 343.04296875 C-195.7373328 329.45021611 -206.9392924 312.26004895 -215.52734375 292.19140625 C-215.93726563 291.26199219 -216.3471875 290.33257813 -216.76953125 289.375 C-224.15371115 271.08627536 -228.60228855 245.03559321 -221.8515625 226.0625 C-218.21385927 218.17544433 -212.67688651 212.93186395 -205.52734375 208.19140625 C-204.04234375 207.20140625 -204.04234375 207.20140625 -202.52734375 206.19140625 C-197.548922 204.47512882 -192.89142727 203.80378499 -187.65234375 203.81640625 C-186.95125488 203.81801758 -186.25016602 203.81962891 -185.52783203 203.82128906 C-179.6974827 203.95891823 -175.43862122 205.13644316 -170.52734375 208.19140625 C-169.51671875 208.76890625 -168.50609375 209.34640625 -167.46484375 209.94140625 C-159.59037971 215.97291062 -153.73542259 222.34686813 -151.52734375 232.19140625 C-151.36692273 233.58943266 -151.23700353 234.99119345 -151.1328125 236.39453125 C-149.54204779 258.23104607 -149.54204779 258.23104607 -139.52734375 277.19140625 C-138.92921875 277.9596875 -138.33109375 278.72796875 -137.71484375 279.51953125 C-129.75191518 289.2163233 -118.03133243 295.65856768 -105.52734375 297.19140625 C-86.08149931 298.50954738 -68.92366511 297.3218539 -53.52734375 284.19140625 C-52.88539063 283.670625 -52.2434375 283.14984375 -51.58203125 282.61328125 C-41.43520779 273.56459885 -37.57834716 259.26286247 -36.52734375 246.19140625 C-36.18445249 239.04442776 -36.25649814 231.88627361 -36.27197266 224.7331543 C-36.26921769 222.59793464 -36.26553474 220.46271601 -36.26100159 218.32749939 C-36.25293514 213.75617268 -36.2507095 209.18489474 -36.25294876 204.61356163 C-36.2557972 197.38066534 -36.24137499 190.14786549 -36.22396851 182.91499329 C-36.17708078 162.35699892 -36.15299061 141.79901233 -36.14648438 121.2409668 C-36.14273283 109.86659271 -36.12470295 98.492329 -36.09139001 87.11800224 C-36.07120065 79.93166753 -36.0687928 72.7456179 -36.07967019 65.55926645 C-36.08227956 61.08903562 -36.06826343 56.61897055 -36.04958916 52.14878273 C-36.04427361 50.08042124 -36.04575302 48.01202911 -36.05462456 45.94367981 C-36.06578124 43.11392903 -36.05227351 40.28529525 -36.03286743 37.45561218 C-36.04199209 36.6431507 -36.05111675 35.83068922 -36.06051791 34.9936077 C-35.92568638 24.84690243 -30.78394343 16.6628189 -23.90234375 9.5 C-16.92232602 3.05317807 -9.34420189 0.70767526 0 0 Z " fill="#11F6D0" transform="translate(1084.52734375,313.80859375)"/>
<path d="M0 0 C0.85279561 -0.00311998 1.70559121 -0.00623996 2.58422911 -0.00945449 C5.4407141 -0.01742926 8.29698634 -0.01111279 11.1534729 -0.00482178 C13.20194117 -0.00753191 15.25040846 -0.01109296 17.2988739 -0.01544189 C22.86294423 -0.02456666 28.42694046 -0.02102095 33.9910121 -0.01468372 C39.81336639 -0.00962284 45.63571431 -0.01431555 51.45806885 -0.01745605 C61.23822163 -0.02109601 71.01834423 -0.01629641 80.79849243 -0.0067749 C92.10299107 0.00410361 103.40741754 0.00058855 114.71191442 -0.01042771 C124.41735844 -0.01950698 134.12278074 -0.02078254 143.82822764 -0.01555037 C149.62488082 -0.01243342 155.42150009 -0.0120137 161.21815109 -0.01862335 C166.66986654 -0.02440523 172.12148908 -0.02038439 177.5731945 -0.00883484 C179.57305306 -0.00619252 181.57291945 -0.00694604 183.57277489 -0.01136017 C186.30488807 -0.01683403 189.03670449 -0.00995902 191.76879883 0 C192.55820653 -0.00446144 193.34761424 -0.00892289 194.16094339 -0.01351953 C204.26011047 0.05776661 210.93025291 3.78366739 218.51138306 10.25396729 C220.8909834 12.74618246 222.74527852 15.30099508 224.51138306 18.25396729 C224.92259399 18.88302979 225.33380493 19.51209229 225.75747681 20.16021729 C230.07690994 27.9322077 229.70389955 38.40291514 227.96841431 46.91802979 C226.5075596 51.0988184 224.14157999 54.72198855 221.51138306 58.25396729 C221.10275024 58.81986572 220.69411743 59.38576416 220.27310181 59.96881104 C214.56000447 67.32341802 206.69901414 71.8031998 197.51138306 73.25396729 C192.34299358 73.53799241 187.18133096 73.50716889 182.00747681 73.48101807 C180.43981432 73.48045326 178.87215131 73.48077186 177.30448914 73.48190308 C173.06744785 73.4824749 168.83052071 73.47074831 164.59350586 73.45675516 C160.15858546 73.44421927 155.72366219 73.44307505 151.28872681 73.44070435 C142.89892545 73.43449796 134.50917646 73.41809856 126.11939812 73.39800537 C116.56438362 73.37562013 107.00936656 73.36464634 97.45433235 73.3546145 C77.8066534 73.33373157 58.15902153 73.298572 38.51138306 73.25396729 C38.51599202 73.85012439 38.52060099 74.44628149 38.52534962 75.06050396 C38.63614949 89.61899575 38.71869457 104.17746251 38.77044392 118.73627758 C38.79613986 125.7770783 38.83112341 132.81759623 38.88858032 139.85821533 C38.94406023 146.65986602 38.97285185 153.46122348 38.98576927 160.26308632 C38.9949683 162.85089029 39.01293146 165.43867925 39.04003334 168.02635765 C39.34731815 198.59695916 39.34731815 198.59695916 28.58169556 211.25006104 C21.55501434 218.05135814 14.20298004 221.42979998 4.51138306 222.25396729 C3.37700806 222.35709229 2.24263306 222.46021729 1.07388306 222.56646729 C-8.23719277 221.74970625 -15.55085013 219.60734337 -22.48861694 213.25396729 C-23.11639038 212.72802979 -23.74416382 212.20209229 -24.39096069 211.66021729 C-29.32781914 207.23478815 -31.45964126 202.49361293 -33.48861694 196.25396729 C-33.81861694 195.26396729 -34.14861694 194.27396729 -34.48861694 193.25396729 C-34.58912126 191.05722652 -34.62801108 188.85751796 -34.63578796 186.65849304 C-34.63946465 185.98511573 -34.64314134 185.31173843 -34.64692944 184.61795574 C-34.65796173 182.35656323 -34.66180939 180.09521667 -34.6656189 177.83380127 C-34.67188407 176.21413528 -34.67853092 174.59447072 -34.68553162 172.97480774 C-34.70657417 167.64990235 -34.71693657 162.32499668 -34.72689819 157.00006104 C-34.73094616 155.16554309 -34.7350631 153.33102529 -34.73924828 151.49650764 C-34.75830312 142.87450196 -34.77253157 134.25250483 -34.78086025 125.63048214 C-34.79062366 115.68783248 -34.8169185 105.74540599 -34.85736114 95.80283493 C-34.88756461 88.11265866 -34.90233327 80.42254619 -34.90564126 72.73231179 C-34.90798761 68.14213891 -34.91689333 63.55220434 -34.94210243 58.96209526 C-34.96546125 54.63888236 -34.96958518 50.31606334 -34.95934105 45.99280357 C-34.95884741 44.41184424 -34.96511677 42.83086502 -34.97889709 41.24996567 C-35.08177627 28.740626 -33.51179094 19.5777188 -24.70736694 10.29693604 C-17.18220672 3.36795928 -10.27054299 -0.05771914 0 0 Z " fill="#11F5D0" transform="translate(579.4886169433594,463.74603271484375)"/>
<path d="M0 0 C1.96888597 -0.00926972 3.93776839 -0.01932081 5.90664673 -0.03009033 C11.23326973 -0.05620947 16.55984247 -0.0692023 21.88651943 -0.07811165 C25.22046765 -0.08399257 28.55440242 -0.09220566 31.88834381 -0.10112 C42.33746482 -0.12843277 52.78655474 -0.14778555 63.23570895 -0.15552378 C75.26513416 -0.16448356 87.29410467 -0.19958795 99.32339168 -0.25752497 C108.64518804 -0.30085181 117.96685688 -0.3209372 127.28875279 -0.32360601 C132.84594717 -0.32569497 138.40271306 -0.33735711 143.95980072 -0.37324524 C149.19018681 -0.40637036 154.41982594 -0.41043986 159.65028 -0.39296722 C161.56014645 -0.39143528 163.47005446 -0.39999509 165.37981796 -0.41988373 C178.87775812 -0.55211288 190.5650063 0.56332186 201.04394531 10.07226562 C210.33781214 20.46540702 212.31803177 29.733522 211.72314453 43.27978516 C210.92036274 52.42974763 205.11362369 59.6675949 198.91894531 66.00976562 C188.01401596 74.22258488 176.3586021 74.0427488 163.37011719 73.96923828 C161.34842647 73.97602404 159.32674193 73.98493253 157.30506897 73.99578857 C151.84424837 74.01847433 146.38390304 74.0097899 140.92307472 73.99389315 C135.19117639 73.98117845 129.45931703 73.99298968 123.72741699 74.00082397 C114.10417422 74.00990434 104.4811237 73.99797493 94.85791016 73.97412109 C83.75374998 73.94691308 72.65004893 73.95572837 61.54589987 73.98325312 C51.98882177 74.00598912 42.43188137 74.0091223 32.87478495 73.99605978 C27.17693977 73.98828998 21.47930997 73.98715553 15.78147888 74.00374222 C10.42304068 74.0182531 5.06519079 74.00804452 -0.29318428 73.97927094 C-2.25223886 73.97269541 -4.21134349 73.97449677 -6.17037773 73.98558426 C-19.63840058 74.05474441 -31.42884326 73.1693803 -41.70605469 63.34179688 C-50.15504538 53.59151074 -52.51895878 42.98971368 -51.68115234 30.30419922 C-50.49763517 19.88360006 -44.23972078 12.80456167 -36.45605469 6.32226562 C-26.30078412 -1.56199507 -12.12789591 0.01334207 0 0 Z " fill="#11F6D0" transform="translate(596.4560546875,313.677734375)"/>
<path d="M0 0 C2.89803763 1.31162115 4.95975269 2.71255321 7.19854736 4.96476746 C7.80671799 5.57163391 8.41488861 6.17850037 9.04148865 6.80375671 C10.02497032 7.80038078 10.02497032 7.80038078 11.02832031 8.81713867 C11.72806473 9.51819733 12.42780914 10.21925598 13.14875793 10.94155884 C15.46317408 13.26247015 17.7705337 15.59027338 20.078125 17.91796875 C21.68941072 19.53552744 23.30121439 21.15257035 24.91351318 22.76911926 C29.16272107 27.03164043 33.40633726 31.29968176 37.64837646 35.56933594 C44.42252925 42.38655724 51.20328456 49.19719363 57.98744965 56.00444984 C60.34947099 58.37663761 62.70801365 60.75224322 65.06622314 63.1282196 C66.5287298 64.59756156 67.9913501 66.06679042 69.45410156 67.53588867 C70.42543785 68.51733101 70.42543785 68.51733101 71.41639709 69.51860046 C75.22752973 73.33905809 79.15201123 76.91039222 83.31997299 80.34053516 C85 82 85 82 87 86 C58.95 114.05 30.9 142.1 2 171 C-1.53133073 169.23433463 -3.21342643 168.02506669 -5.890625 165.3046875 C-6.95410156 164.23154297 -6.95410156 164.23154297 -8.0390625 163.13671875 C-8.76867187 162.39035156 -9.49828125 161.64398437 -10.25 160.875 C-10.99507812 160.12089844 -11.74015625 159.36679687 -12.5078125 158.58984375 C-14.3431342 156.73099228 -16.1736191 154.86762995 -18 153 C-14.12207556 148.36145443 -10.09963668 143.95753022 -5.81103516 139.69750977 C-4.93189957 138.81815514 -4.93189957 138.81815514 -4.03500366 137.92103577 C-2.12205396 136.00877556 -0.20560087 134.10006914 1.7109375 132.19140625 C3.04779595 130.85641541 4.38443192 129.52120173 5.72085571 128.18577576 C9.22025979 124.69016983 12.7226577 121.19757886 16.22570801 117.70562744 C19.80724865 114.1343593 23.38592156 110.56021998 26.96484375 106.98632812 C33.9737739 99.98808759 40.98587324 92.99303185 48 86 C44.12207556 81.36145443 40.09963668 76.95753022 35.81103516 72.69750977 C35.22494476 72.11127335 34.63885437 71.52503693 34.03500366 70.92103577 C32.12205396 69.00877556 30.20560087 67.10006914 28.2890625 65.19140625 C26.95220405 63.85641541 25.61556808 62.52120173 24.27914429 61.18577576 C20.77974021 57.69016983 17.2773423 54.19757886 13.77429199 50.70562744 C10.19275135 47.1343593 6.61407844 43.56021998 3.03515625 39.98632812 C-3.9737739 32.98808759 -10.98587324 25.99303185 -18 19 C-11.70406819 11.57402299 -11.70406819 11.57402299 -8.7890625 8.69140625 C-8.26699219 8.17255859 -7.74492187 7.65371094 -7.20703125 7.11914062 C-6.68496094 6.60544922 -6.16289062 6.09175781 -5.625 5.5625 C-5.07972656 5.02173828 -4.53445312 4.48097656 -3.97265625 3.92382812 C-2.65076536 2.61353277 -1.32572382 1.30641716 0 0 Z " fill="#60BEBD" transform="translate(216,407)"/>
<path d="M0 0 C39.27 0 78.54 0 119 0 C119 9.9 119 19.8 119 30 C79.73 30 40.46 30 0 30 C0 20.1 0 10.2 0 0 Z " fill="#60BDBC" transform="translate(310,568)"/>
</svg>
