<?xml version="1.0" encoding="UTF-8"?>
<svg version="1.1" xmlns="http://www.w3.org/2000/svg" width="66" height="50">
<path d="M0 0 C21.78 0 43.56 0 66 0 C66 16.5 66 33 66 50 C44.22 50 22.44 50 0 50 C0 33.5 0 17 0 0 Z " fill="#111313" transform="translate(0,0)"/>
<path d="M0 0 C0.99 0 1.98 0 3 0 C3.0809723 2.43816585 3.14046972 4.87364384 3.1875 7.3125 C3.22520508 8.34793945 3.22520508 8.34793945 3.26367188 9.40429688 C3.33738291 14.49035815 3.33738291 14.49035815 1.70703125 16.953125 C-1.223303 18.75021786 -3.67769349 18.41528831 -7 18 C-9 16.25 -9 16.25 -10 14 C-9.6875 11.75 -9.6875 11.75 -9 10 C-8.01 10.33 -7.02 10.66 -6 11 C-6 11.99 -6 12.98 -6 14 C-4.35 14 -2.7 14 -1 14 C-1.01160156 13.07316406 -1.02320313 12.14632813 -1.03515625 11.19140625 C-1.04417969 9.99386719 -1.05320312 8.79632813 -1.0625 7.5625 C-1.07410156 6.36753906 -1.08570313 5.17257813 -1.09765625 3.94140625 C-1 1 -1 1 0 0 Z " fill="#11E1BF" transform="translate(53,16)"/>
<path d="M0 0 C1.65322266 0.01740234 1.65322266 0.01740234 3.33984375 0.03515625 C4.99693359 0.04869141 4.99693359 0.04869141 6.6875 0.0625 C7.54214844 0.07410156 8.39679687 0.08570312 9.27734375 0.09765625 C9.27734375 1.41765625 9.27734375 2.73765625 9.27734375 4.09765625 C6.30734375 4.09765625 3.33734375 4.09765625 0.27734375 4.09765625 C0.27734375 6.40765625 0.27734375 8.71765625 0.27734375 11.09765625 C-1.04265625 11.09765625 -2.36265625 11.09765625 -3.72265625 11.09765625 C-3.74953776 9.45191059 -3.76899748 7.80604212 -3.78515625 6.16015625 C-3.79675781 5.24363281 -3.80835937 4.32710937 -3.8203125 3.3828125 C-3.67719549 0.03387446 -3.38091958 0.12126684 0 0 Z " fill="#11DEBC" transform="translate(30.72265625,22.90234375)"/>
<path d="M0 0 C4.29 0 8.58 0 13 0 C13 0.99 13 1.98 13 3 C8.71 3 4.42 3 0 3 C0 2.01 0 1.02 0 0 Z " fill="#11EEC9" transform="translate(27,16)"/>
</svg>
